<svg xmlns="http://www.w3.org/2000/svg" xmlns:xlink="http://www.w3.org/1999/xlink" width="123" height="100" version="1.1" viewBox="0 0 123 100"><title>create-and-host-websites.svg</title><desc>Created with Sketch.</desc><g id="Page-1" fill="none" fill-rule="evenodd" stroke="none" stroke-width="1"><g id="create-and-host-websites.svg" transform="translate(1.000000, 1.000000)"><g id="customizable-apps-copy-2" transform="translate(28.000000, 19.000000)"><rect id="back-copy" width="50" height="22" x="10" y="17" stroke="#111" stroke-dasharray="1 4 1 4" stroke-linecap="round" stroke-linejoin="round" stroke-width="2.5" rx="1.5"/><rect id="Rectangle-2" width="70" height="60" x="0" y="0" stroke="#111" stroke-width="2" rx="1.5"/><rect id="Rectangle-2-Copy" width="70" height="50" x="0" y="10" stroke="#111" stroke-width="2" rx="1.5"/><rect id="Rectangle-3-Copy" width="20" height="8.5" x="10" y="45" fill="#C72B59" rx="1.5"/><rect id="Rectangle-3-Copy-2" width="10" height="8.5" x="35" y="45" fill="#3F51B5" rx="1.5"/><circle id="Oval" cx="5.75" cy="4.75" r="1.75" fill="#111"/><circle id="Oval-Copy" cx="11.75" cy="4.75" r="1.75" fill="#111"/><circle id="Oval-Copy-2" cx="17.75" cy="4.75" r="1.75" fill="#111"/></g><path id="Line-Copy-49" stroke="#DDD" stroke-dasharray="1 4 1 4" stroke-linecap="round" stroke-linejoin="round" stroke-width="2.5" d="M104.5,66.5 L120.5,66.5"/><path id="Line-Copy-48" stroke="#DDD" stroke-dasharray="1 4 1 4" stroke-linecap="round" stroke-linejoin="round" stroke-width="2.5" d="M104,61 L107,61"/><path id="Line-Copy-47" stroke="#DDD" stroke-dasharray="1 4 1 4" stroke-linecap="round" stroke-linejoin="round" stroke-width="2.5" d="M15,35 L23,35"/><path id="Line-Copy-46" stroke="#DDD" stroke-dasharray="1 4 1 4" stroke-linecap="round" stroke-linejoin="round" stroke-width="2.5" d="M5,30 L23,30"/><path id="Line-Copy-45" stroke="#DDD" stroke-dasharray="1 4 1 4" stroke-linecap="round" stroke-linejoin="round" stroke-width="2.5" d="M104,71 L116,71"/><path id="Line-Copy-44" stroke="#DDD" stroke-dasharray="1 4 1 4" stroke-linecap="round" stroke-linejoin="round" stroke-width="2.5" d="M10,40 L21,40"/><path id="Line-Copy-43" stroke="#DDD" stroke-dasharray="1 4 1 4" stroke-linecap="round" stroke-linejoin="round" stroke-width="2.5" d="M95,1 L107,1"/><path id="Line-Copy-41" stroke="#DDD" stroke-dasharray="1 4 1 4" stroke-linecap="round" stroke-linejoin="round" stroke-width="2.5" d="M49.5,86.5 L49.5,101"/><path id="Line-Copy-40" stroke="#DDD" stroke-dasharray="1 4 1 4" stroke-linecap="round" stroke-linejoin="round" stroke-width="2.5" d="M54,86 L54,93.5"/><path id="Line-Copy-39" stroke="#DDD" stroke-dasharray="1 4 1 4" stroke-linecap="round" stroke-linejoin="round" stroke-width="2.5" d="M120.5,51.5 L120.5,66"/><path id="Line-Copy-38" stroke="#DDD" stroke-dasharray="1 4 1 4" stroke-linecap="round" stroke-linejoin="round" stroke-width="2.5" d="M1,30 L1,47.5"/><path id="Line-Copy-37" stroke="#DDD" stroke-dasharray="1 4 1 4" stroke-linecap="round" stroke-linejoin="round" stroke-width="2.5" d="M91,1 L91,12.5"/><path id="Line-Copy-36" stroke="#DDD" stroke-dasharray="1 4 1 4" stroke-linecap="round" stroke-linejoin="round" stroke-width="2.5" d="M96,11 L96,12.5"/><path id="Line-Copy-35" stroke="#DDD" stroke-dasharray="1 4 1 4" stroke-linecap="round" stroke-linejoin="round" stroke-width="2.5" d="M44,86 L44,89.5"/><path id="Line-Copy-34" stroke="#DDD" stroke-dasharray="1 4 1 4" stroke-linecap="round" stroke-linejoin="round" stroke-width="2.5" d="M85,5 L85,14.5"/></g></g></svg>