<svg xmlns="http://www.w3.org/2000/svg" xmlns:xlink="http://www.w3.org/1999/xlink" width="104" height="87" version="1.1" viewBox="0 0 104 87"><title>p2p-connection</title><desc>Created with Sketch.</desc><g id="Page-1" fill="none" fill-rule="evenodd" stroke="none" stroke-width="1"><g id="p2p-connection" transform="translate(1.000000, 1.000000)"><g id="computer-blue" stroke-width="2"><rect id="Rectangle-2" width="43" height="34" x="59" y="0" stroke="#111" rx="1.5" transform="translate(80.500000, 17.000000) rotate(180.000000) translate(-80.500000, -17.000000)"/><rect id="Rectangle-2-Copy" width="43" height="25" x="59" y="0" fill="#D2D8F9" stroke="#111" rx="1.5" transform="translate(80.500000, 12.500000) rotate(180.000000) translate(-80.500000, -12.500000)"/><path id="Rectangle-8" stroke="#000" d="M74.4758596,34 L73.1298257,45 L87.8145272,45 L85.9339255,34 L74.4758596,34 Z"/><rect id="Rectangle-2" width="43" height="34" x="0" y="40" stroke="#111" rx="1.5" transform="translate(21.500000, 57.000000) rotate(180.000000) translate(-21.500000, -57.000000)"/></g><g id="connection" stroke="#DDD" stroke-dasharray="1 4 1 4" stroke-linecap="round" stroke-linejoin="round" stroke-width="2.5" transform="translate(23.000000, 14.000000)"><path id="Line-Copy-50" d="M5,1 L33,1"/><path id="Line-Copy-52" d="M1,1 L1,21.5"/><path id="Line-Copy-53" d="M60,36 L60,56.5"/><path id="Line-Copy-51" d="M24,57 L59,57"/></g><g id="computer-green" stroke-width="2" transform="translate(0.000000, 40.000000)"><rect id="Rectangle-2-Copy" width="43" height="25" x="0" y="0" fill="#CAE5CB" stroke="#111" rx="1.5" transform="translate(21.500000, 12.500000) rotate(180.000000) translate(-21.500000, -12.500000)"/><path id="Rectangle-8-Copy" stroke="#000" d="M15.4758596,34 L14.1298257,45 L28.8145272,45 L26.9339255,34 L15.4758596,34 Z"/></g></g></g></svg>