<svg xmlns="http://www.w3.org/2000/svg" xmlns:xlink="http://www.w3.org/1999/xlink" width="102" height="75" version="1.1" viewBox="0 0 102 75"><title>box</title><desc>Created with Sketch.</desc><g id="Page-1" fill="none" fill-rule="evenodd" stroke="none" stroke-width="1"><g id="box"><polygon id="Rectangle-19" fill="#A97A46" points="50 24.948 87 13 87 61.507 50 74.242"/><polygon id="Rectangle-19-Copy" fill="#D4A163" points="13 24.948 50 13 50 61.507 13 74.242" transform="translate(31.500000, 43.621094) scale(-1, 1) translate(-31.500000, -43.621094)"/><polygon id="Rectangle-20-Copy" fill="#F4D0A2" points=".112 24.464 36.767 12.608 50.598 31.405 14.007 45.866" transform="translate(25.354980, 29.237305) scale(-1, 1) translate(-25.354980, -29.237305)"/><polygon id="Rectangle-20-Copy-2" fill="#F4D0A2" points="51 24.855 87.654 13 101.485 31.797 64.895 46.258"/><polygon id="Triangle-3" fill="#A07442" points="13.852 12.421 50.223 .73 50.223 24.628"/><polygon id="Triangle-3-Copy" fill="#8C5E32" points="50 12.69 87.37 1 87.37 24.897" transform="translate(68.684999, 12.948730) scale(-1, 1) translate(-68.684999, -12.948730)"/></g></g></svg>