<svg xmlns="http://www.w3.org/2000/svg" xmlns:xlink="http://www.w3.org/1999/xlink" width="55" height="44" version="1.1" viewBox="0 0 55 44"><title>folder-color copy</title><desc>Created with Sketch.</desc><defs><filter id="filter-1" width="109.4%" height="109.5%" x="-3.8%" y="-2.4%" filterUnits="objectBoundingBox"><feOffset dx="0" dy="1" in="SourceAlpha" result="shadowOffsetOuter1"/><feGaussianBlur in="shadowOffsetOuter1" result="shadowBlurOuter1" stdDeviation=".5"/><feColorMatrix in="shadowBlurOuter1" result="shadowMatrixOuter1" type="matrix" values="0 0 0 0 0 0 0 0 0 0 0 0 0 0 0 0 0 0 0.39 0"/><feMerge><feMergeNode in="shadowMatrixOuter1"/><feMergeNode in="SourceGraphic"/></feMerge></filter><linearGradient id="linearGradient-2" x1="50%" x2="50%" y1="138.289%" y2="0%"><stop offset="0%" stop-color="#FFF5D9"/><stop offset="100%" stop-color="#F7E5A1"/></linearGradient><rect id="path-3" width="53" height="34" x="0" y="8" rx="2"/><path id="path-4" d="M18.097561,5 L51,5 C52.1045695,5 53,5.8954305 53,7 L53,10 L0,10 L0,2 C-1.3527075e-16,0.8954305 0.8954305,2.02906125e-16 2,0 L13.0773961,0 C14.5729567,-2.49517608e-15 15.943592,0.834305362 16.6305106,2.16277986 L18.097561,5 L18.097561,5 Z"/></defs><g id="Page-1" fill="none" fill-rule="evenodd" stroke="none" stroke-width="1"><g id="folder-color-copy" filter="url(#filter-1)" transform="translate(1.000000, 0.000000)"><g id="Rectangle-16"><use fill="url(#linearGradient-2)" fill-rule="evenodd" xlink:href="#path-3"/><rect width="52" height="33" x=".5" y="8.5" stroke="#918457" stroke-width="1" rx="2"/></g><g id="Combined-Shape"><use fill="#FFECAD" fill-rule="evenodd" xlink:href="#path-4"/><path stroke="#918557" stroke-width="1" d="M0.5,9.5 L52.5,9.5 L52.5,7 C52.5,6.17157288 51.8284271,5.5 51,5.5 L17.7932111,5.5 L16.1863713,2.39243237 C15.5853176,1.23001719 14.3860117,0.5 13.0773961,0.5 L2,0.5 C1.17157288,0.5 0.5,1.17157288 0.5,2 L0.5,9.5 Z"/></g></g></g></svg>