<svg xmlns="http://www.w3.org/2000/svg" xmlns:xlink="http://www.w3.org/1999/xlink" width="240" height="240" version="1.1" viewBox="0 0 240 240"><title>globe</title><desc>Created with Sketch.</desc><g id="Page-1" fill="none" fill-rule="evenodd" stroke="none" stroke-width="1"><g id="globe"><circle id="Oval-2" cx="120" cy="120" r="120" fill="#000" fill-opacity=".2"/><polygon id="Path-3" fill="#FFF" points="51.064 81.292 48.757 78.632 46.04 76.611 43.341 74.813 41.265 74.813 41.265 70.618 38.005 70.618 38.005 67.704 36.066 67.704 36.066 65.851 39.287 61.958 43.341 57.443 43.565 55.012 48.757 50.43 51.064 46.602 56.518 43.342 60.973 39.739 65.648 38.011 69.658 35.22 73.071 32.769 77.156 32.769 81.709 35.22 81.709 32.769 84.539 31.336 88.281 31.336 90.795 31.336 95.723 32.769 100.764 32.769 104.36 32.769 106.6 35.22 106.6 32.769 108.455 31.336 110.934 31.336 109.614 28.898 106.6 26.808 104.36 25.331 106.6 22.821 109.614 22.821 112.908 24.183 112.908 26.808 115.851 28.898 119.161 31.336 119.161 28.898 121.803 28.898 122.951 32.769 124.128 34.199 126.767 31.336 128.932 28.898 132.621 26.808 135.38 31.336 135.38 35.22 131.43 36.28 127.782 35.22 126.767 36.28 124.128 38.011 122.951 41.399 120.685 43.342 115.851 43.342 112.908 45.55 110.934 49.239 109.614 55.012 112.908 57.443 112.908 59.354 119.161 59.354 122.951 59.354 126.767 63.041 127.782 64.5 132.621 64.5 135.38 67.704 135.38 70.618 137.81 73.119 139.35 73.119 142.687 73.119 142.687 70.618 141.435 67.704 144.083 64.5 145.476 61.958 146.489 59.354 144.083 57.443 142.687 55.012 144.083 52.057 144.083 45.55 148.531 45.55 152.826 46.602 156.587 46.602 159.129 49.239 160.899 50.43 160.899 55.012 163.534 55.012 164.854 57.443 166.998 55.012 170.002 55.012 172.441 52.057 174.075 55.012 177.439 59.354 177.439 63.041 180.035 64.5 183.315 64.5 186.48 65.851 187.493 67.704 190.834 70.618 189.274 71.765 187.493 73.119 184.815 74.813 183.315 76.611 180.035 76.611 177.439 76.611 172.441 76.611 166.998 76.611 164.854 78.632 162.304 78.632 162.304 81.292 160.899 83.637 163.534 81.292 166.998 81.292 166.998 78.632 170.002 78.632 172.441 81.292 170.002 81.292 168.65 82.455 170.002 83.637 171.03 85.918 172.441 87.215 170.002 88.87 166.998 88.87 164.854 90.326 164.854 92.389 162.304 92.389 159.129 92.389 159.129 97.983 156.587 97.983 152.826 97.983 152.826 99.929 151.491 103.486 148.531 103.486 146.489 101.664 146.489 104.903 146.489 107.971 148.531 111.858 146.489 111.858 146.489 114.531 144.083 114.531 142.687 117.945 139.35 119.02 137.81 121.082 135.38 123.258 135.38 125.152 137.81 127.441 139.35 128.78 139.35 139.613 137.81 139.613 135.38 136.545 134.158 133.776 135.38 130.852 132.621 128.78 130.012 128.78 127.782 127.441 125.456 127.441 122.951 125.152 120.685 127.441 119.161 125.152 117.121 125.152 117.121 128.78 113.45 128.78 113.45 127.441 106.6 127.441 106.6 130.852 104.36 130.852 102.842 133.776 102.842 141.071 100.764 142.206 102.842 150.156 104.36 153.089 106.6 154.366 109.614 157.941 115.851 157.941 115.851 154.366 117.121 151.755 119.161 150.156 124.128 150.156 124.128 154.366 121.803 156.04 120.685 160.973 121.803 163.133 124.128 160.973 125.456 163.133 128.932 163.133 131.43 164.739 132.621 168.85 134.158 171.01 132.621 172.253 131.43 174.196 134.158 177.508 139.35 180.243 139.35 183.456 137.81 183.456 134.158 182.28 132.621 180.243 130.012 177.508 126.767 174.196 124.128 172.253 124.128 168.85 120.685 168.85 117.121 168.85 113.45 167.118 112.908 164.739 109.614 163.133 106.6 160.973 104.36 163.133 101.77 163.133 98.005 160.973 94.073 157.941 90.795 156.04 88.281 156.04 88.281 153.089 86.449 150.156 84.539 146.075 81.709 142.206 79.404 139.613 78.229 136.545 75.574 133.776 74.362 132.598 73.071 128.78 69.658 127.441 70.738 125.152 67.206 123.258 69.658 130.852 73.071 135.358 73.071 139.613 69.658 136.545 67.206 133.776 65.648 128.78 64.414 125.152 60.973 117.945 56.518 116.395 52.943 111.858 51.064 107.971 48.757 105.996 47.381 103.139 47.381 95.028 47.381 88.87 47.381 85.918 47.381 82.455 51.064 83.637"/><polygon id="Path-4" fill="#FFF" points="143.962 197.247 143.962 193.372 143.962 191.211 143.962 186.19 143.962 180.599 146.9 180.599 146.9 179.086 149.223 179.086 151.967 175.853 153.941 174.362 155.55 174.362 155.55 179.086 158.083 175.853 161.157 174.362 165.459 175.853 169.918 179.086 177.028 178.07 178.299 180.599 180.101 180.599 183.113 182.1 184.722 184.789 186.699 186.19 188.74 187.613 192.02 187.613 192.02 191.211 188.74 191.211 186.699 193.372 184.722 195.645 181.726 197.247 180.101 199.879 177.028 201.339 174.081 204.122 169.918 205.938 167.991 208.052 163.164 209.593 161.157 210.984 158.083 210.984 155.55 212.106 153.941 213.796 149.223 213.796 146.9 215.711 143.962 217.008 140.891 217.008 139.401 218.03 137.679 218.03 137.679 213.796 137.679 212.106 139.401 210.984 139.401 209.593 137.679 204.122 139.401 201.339 140.891 199.879"/></g></g></svg>