<svg xmlns="http://www.w3.org/2000/svg" xmlns:xlink="http://www.w3.org/1999/xlink" width="436" height="417" version="1.1" viewBox="0 0 436 417"><title>home</title><desc>Created with Sketch.</desc><defs><rect id="path-1" width="60" height="106" x="276" y="31" rx="5"/><filter id="filter-2" width="143.3%" height="124.5%" x="-18.3%" y="-10.4%" filterUnits="objectBoundingBox"><feOffset dx="2" dy="2" in="SourceAlpha" result="shadowOffsetOuter1"/><feGaussianBlur in="shadowOffsetOuter1" result="shadowBlurOuter1" stdDeviation="4"/><feComposite in="shadowBlurOuter1" in2="SourceAlpha" operator="out" result="shadowBlurOuter1"/><feColorMatrix in="shadowBlurOuter1" type="matrix" values="0 0 0 0 0 0 0 0 0 0 0 0 0 0 0 0 0 0 0.4 0"/></filter><path id="path-3" d="M34,133.634547 L34,378.019989 C34,383.542837 38.4771525,388.019989 44,388.019989 L352,388.019989 C357.522847,388.019989 362,383.542837 362,378.019989 L362,133.551633 L198.051196,0.788508565 L34,133.634547 Z"/><filter id="filter-4" width="113.1%" height="111.1%" x="-6.6%" y="-3.7%" filterUnits="objectBoundingBox"><feMorphology in="SourceAlpha" operator="dilate" radius="1.5" result="shadowSpreadOuter1"/><feOffset dx="0" dy="7" in="shadowSpreadOuter1" result="shadowOffsetOuter1"/><feGaussianBlur in="shadowOffsetOuter1" result="shadowBlurOuter1" stdDeviation="4.5"/><feComposite in="shadowBlurOuter1" in2="SourceAlpha" operator="out" result="shadowBlurOuter1"/><feColorMatrix in="shadowBlurOuter1" type="matrix" values="0 0 0 0 0 0 0 0 0 0 0 0 0 0 0 0 0 0 0.4 0"/></filter><path id="path-5" d="M196.603769,1 L197.74186,1.92160756 L197.772864,1.89650073 L231.142195,28.9184516 L231.11119,28.9435584 L395.48372,162.049809 L369.052264,194.689939 L197.74186,55.9655093 L26.4314564,194.689939 L-2.84217094e-13,162.049809 L120.660291,64.3410311 L120.848938,64.5658512 L133.728876,53.7583002 L164.37253,28.9435584 L163.827714,28.5023757 L196.603769,1 Z"/><filter id="filter-6" width="120%" height="140.8%" x="-10%" y="-15.2%" filterUnits="objectBoundingBox"><feOffset dx="0" dy="10" in="SourceAlpha" result="shadowOffsetOuter1"/><feGaussianBlur in="shadowOffsetOuter1" result="shadowBlurOuter1" stdDeviation="11.5"/><feColorMatrix in="shadowBlurOuter1" type="matrix" values="0 0 0 0 0 0 0 0 0 0 0 0 0 0 0 0 0 0 0.55 0"/></filter><rect id="path-7" width="89" height="140" x="153" y="241"/><filter id="filter-8" width="123.6%" height="115%" x="-11.8%" y="-7.5%" filterUnits="objectBoundingBox"><feMorphology in="SourceAlpha" operator="erode" radius="13" result="shadowSpreadInner1"/><feGaussianBlur in="shadowSpreadInner1" result="shadowBlurInner1" stdDeviation="2.5"/><feOffset dx="0" dy="3" in="shadowBlurInner1" result="shadowOffsetInner1"/><feComposite in="shadowOffsetInner1" in2="SourceAlpha" k2="-1" k3="1" operator="arithmetic" result="shadowInnerInner1"/><feColorMatrix in="shadowInnerInner1" type="matrix" values="0 0 0 0 0.556862745 0 0 0 0 0.317647059 0 0 0 0 0.109803922 0 0 0 0.6 0"/></filter><rect id="path-9" width="77" height="67" x="159" y="129"/><filter id="filter-10" width="126%" height="129.9%" x="-13%" y="-14.9%" filterUnits="objectBoundingBox"><feMorphology in="SourceAlpha" operator="erode" radius="9" result="shadowSpreadInner1"/><feGaussianBlur in="shadowSpreadInner1" result="shadowBlurInner1" stdDeviation="5"/><feOffset dx="0" dy="1" in="shadowBlurInner1" result="shadowOffsetInner1"/><feComposite in="shadowOffsetInner1" in2="SourceAlpha" k2="-1" k3="1" operator="arithmetic" result="shadowInnerInner1"/><feColorMatrix in="shadowInnerInner1" type="matrix" values="0 0 0 0 0.556862745 0 0 0 0 0.317647059 0 0 0 0 0.109803922 0 0 0 0.7 0"/></filter></defs><g id="Page-1" fill="none" fill-rule="evenodd" stroke="none" stroke-width="1"><g id="home" transform="translate(20.000000, 10.000000)"><g id="Rectangle-28"><use fill="#000" fill-opacity="1" filter="url(#filter-2)" xlink:href="#path-1"/><use fill="#E6E7E9" fill-rule="evenodd" xlink:href="#path-1"/><rect width="53" height="99" x="279.5" y="34.5" stroke="#D0D1D1" stroke-width="7" rx="5"/></g><g id="Combined-Shape"><use fill="#000" fill-opacity="1" filter="url(#filter-4)" xlink:href="#path-3"/><use fill="#E6E7E9" fill-rule="evenodd" xlink:href="#path-3"/><path stroke="#D0D1D1" stroke-width="10" d="M39,136.019425 L39,378.019989 C39,380.781413 41.2385763,383.019989 44,383.019989 L352,383.019989 C354.761424,383.019989 357,380.781413 357,378.019989 L357,135.93651 L198.051196,7.22230639 L39,136.019425 Z"/></g><g id="Combined-Shape"><use fill="#000" fill-opacity="1" filter="url(#filter-6)" xlink:href="#path-5"/><use fill="#8E511C" fill-rule="evenodd" xlink:href="#path-5"/></g><g id="Rectangle-29"><use fill="#E98704" fill-rule="evenodd" xlink:href="#path-7"/><use fill="#000" fill-opacity="1" filter="url(#filter-8)" xlink:href="#path-7"/><rect width="81" height="132" x="157" y="245" stroke="#8E511C" stroke-width="8"/></g><rect id="Rectangle-30" width="10" height="31" x="219" y="299" fill="#8E511C" fill-opacity=".7"/><g id="Rectangle-31"><use fill="#D1E3F9" fill-rule="evenodd" xlink:href="#path-9"/><use fill="#000" fill-opacity="1" filter="url(#filter-10)" xlink:href="#path-9"/><rect width="70" height="60" x="162.5" y="132.5" stroke="#77552F" stroke-width="7"/></g></g></g></svg>