<svg xmlns="http://www.w3.org/2000/svg" xmlns:xlink="http://www.w3.org/1999/xlink" width="396" height="389" version="1.1" viewBox="0 0 396 389"><title>home-grayscale</title><desc>Created with Sketch.</desc><defs><rect id="path-1" width="60" height="106" x="276" y="31" rx="5"/><path id="path-2" d="M34,133.634547 L34,378.019989 C34,383.542837 38.4771525,388.019989 44,388.019989 L352,388.019989 C357.522847,388.019989 362,383.542837 362,378.019989 L362,133.551633 L198.051196,0.788508565 L34,133.634547 Z"/><rect id="path-3" width="77" height="67" x="159" y="129"/></defs><g id="Page-1" fill="none" fill-rule="evenodd" stroke="none" stroke-width="1"><g id="home-grayscale"><g id="Rectangle-28"><use fill="#787679" fill-rule="evenodd" xlink:href="#path-1"/><rect width="53" height="99" x="279.5" y="34.5" stroke="#787679" stroke-width="7" rx="5"/></g><g id="Combined-Shape"><use fill="#E6E7E9" fill-rule="evenodd" xlink:href="#path-2"/><path stroke="#787679" stroke-width="10" d="M39,136.019425 L39,378.019989 C39,380.781413 41.2385763,383.019989 44,383.019989 L352,383.019989 C354.761424,383.019989 357,380.781413 357,378.019989 L357,135.93651 L198.051196,7.22230639 L39,136.019425 Z"/></g><path id="Combined-Shape" fill="#787679" d="M196.603769,1 L197.74186,1.92160756 L197.772864,1.89650073 L231.142195,28.9184516 L231.11119,28.9435584 L395.48372,162.049809 L369.052264,194.689939 L197.74186,55.9655093 L26.4314564,194.689939 L-2.84217094e-13,162.049809 L120.660291,64.3410311 L120.848938,64.5658512 L133.728876,53.7583002 L164.37253,28.9435584 L163.827714,28.5023757 L196.603769,1 Z"/><rect id="Rectangle-29" width="89" height="140" x="153" y="241" fill="#787679"/><rect id="Rectangle-30" width="10" height="31" x="219" y="299" fill="#FFF" fill-opacity=".5"/><g id="Rectangle-31"><use fill="#F6F4F7" fill-rule="evenodd" xlink:href="#path-3"/><rect width="70" height="60" x="162.5" y="132.5" stroke="#7B797B" stroke-width="7"/></g></g></g></svg>