<svg xmlns="http://www.w3.org/2000/svg" xmlns:xlink="http://www.w3.org/1999/xlink" width="141" height="145" version="1.1" viewBox="0 0 141 145"><title>pencil</title><desc>Created with Sketch.</desc><g id="Page-1" fill="none" fill-rule="evenodd" stroke="none" stroke-width="1"><g id="pencil" stroke="#B8B8B8" transform="translate(6.000000, -7.000000)"><path id="Rectangle-4" stroke-linecap="round" stroke-width="12" d="M129,71.0234375 L129,142 C129,144.209139 127.209139,146 125,146 L4,146 C1.790861,146 0,144.209139 0,142 L0,23 C0,20.790861 1.790861,19 4,19 L67.7011719,19"/><path id="Triangle" fill="#B8B8B8" stroke-width="8" d="M46.2640322,95.2954859 L58.8752572,119.749925 L31.8752572,119.749925 L44.4864822,95.2954859 L44.4864822,95.2954859 C44.7396186,94.804629 45.3427442,94.6119184 45.833601,94.8650547 C46.0183217,94.9603157 46.1687712,95.1107652 46.2640322,95.2954859 Z" transform="translate(45.375257, 107.251773) rotate(220.000000) translate(-45.375257, -107.251773)"/><path id="Combined-Shape-Copy" stroke-width="12" d="M46.9498158,89.6993197 L100.073921,13.3462138 C100.937077,12.1056357 102.636114,11.8041382 103.868828,12.6728003 L122.787663,26.0044236 C124.020377,26.8730857 124.319963,28.5829628 123.456808,29.823541 L70.3327023,106.176647" transform="translate(85.449816, 59.176647) rotate(5.000000) translate(-85.449816, -59.176647)"/></g></g></svg>